<?xml version="1.0" encoding="UTF-8" standalone="no"?>
<!DOCTYPE svg PUBLIC "-//W3C//DTD SVG 1.1//EN"
 "http://www.w3.org/Graphics/SVG/1.1/DTD/svg11.dtd">
<!-- Generated by graphviz version 2.40.1 (20161225.0304)
 -->
<!-- Title: G Pages: 1 -->
<svg width="635pt" height="748pt"
 viewBox="0.00 0.00 635.06 748.11" xmlns="http://www.w3.org/2000/svg" xmlns:xlink="http://www.w3.org/1999/xlink">
<g id="graph0" class="graph" transform="scale(1 1) rotate(0) translate(4 744.1148)">
<title>G</title><style>.edge>path:hover{stroke-width:8}</style>
<polygon fill="#ffffff" stroke="transparent" points="-4,4 -4,-744.1148 631.0563,-744.1148 631.0563,4 -4,4"/>
<!-- charset_normalizer -->
<g id="node1" class="node">
<title>charset_normalizer</title><style>.edge>path:hover{stroke-width:8}</style>
<ellipse fill="#c24747" stroke="#000000" cx="64.7529" cy="-366.8442" rx="64.5068" ry="18"/>
<text text-anchor="middle" x="64.7529" y="-364.3442" font-family="Helvetica,sans-Serif" font-size="10.00" fill="#ffffff">charset_normalizer</text>
</g>
<!-- requests -->
<g id="node4" class="node">
<title>requests</title><style>.edge>path:hover{stroke-width:8}</style>
<ellipse fill="#174282" stroke="#000000" cx="210.7529" cy="-127" rx="34.9638" ry="18"/>
<text text-anchor="middle" x="210.7529" y="-124.5" font-family="Helvetica,sans-Serif" font-size="10.00" fill="#ffffff">requests</text>
</g>
<!-- charset_normalizer&#45;&gt;requests -->
<g id="edge1" class="edge">
<title>charset_normalizer&#45;&gt;requests</title><style>.edge>path:hover{stroke-width:8}</style>
<path fill="none" stroke="#000000" d="M62.5066,-348.7678C60.841,-331.1533 59.6435,-303.7274 64.7529,-280.6396"/>
<path fill="none" stroke="#000000" d="M64.7529,-280.6396C74.4942,-236.6224 55.4549,-216.0946 83.7529,-181 84.5252,-180.0423 136.6282,-158.0668 173.8494,-142.4491"/>
<polygon fill="#c24747" stroke="#000000" points="175.5556,-145.5289 183.4241,-138.434 172.8486,-139.0735 175.5556,-145.5289"/>
</g>
<!-- requests_packages -->
<g id="node9" class="node">
<title>requests_packages</title><style>.edge>path:hover{stroke-width:8}</style>
<ellipse fill="#4c75b3" stroke="#000000" cx="137.7529" cy="-202.2132" rx="44.5955" ry="21.4286"/>
<text text-anchor="middle" x="137.7529" y="-205.2132" font-family="Helvetica,sans-Serif" font-size="10.00" fill="#ffffff">requests.</text>
<text text-anchor="middle" x="137.7529" y="-194.2132" font-family="Helvetica,sans-Serif" font-size="10.00" fill="#ffffff">packages</text>
</g>
<!-- charset_normalizer&#45;&gt;requests_packages -->
<g id="edge2" class="edge">
<title>charset_normalizer&#45;&gt;requests_packages</title><style>.edge>path:hover{stroke-width:8}</style>
<path fill="none" stroke="#000000" d="M64.7529,-280.6396C69.6923,-258.3204 86.7116,-239.3569 103.0748,-225.6706"/>
<polygon fill="#c24747" stroke="#000000" points="105.3401,-228.3411 110.9992,-219.3842 100.9897,-222.8572 105.3401,-228.3411"/>
</g>
<!-- main_py -->
<g id="node2" class="node">
<title>main_py</title><style>.edge>path:hover{stroke-width:8}</style>
<ellipse fill="#909f56" stroke="#000000" cx="168.7529" cy="-18" rx="32.9303" ry="18"/>
<text text-anchor="middle" x="168.7529" y="-15.5" font-family="Helvetica,sans-Serif" font-size="10.00" fill="#000000">main.py</text>
</g>
<!-- pyodbc -->
<g id="node3" class="node">
<title>pyodbc</title><style>.edge>path:hover{stroke-width:8}</style>
<ellipse fill="#53b67b" stroke="#000000" cx="127.7529" cy="-127" rx="30.7213" ry="18"/>
<text text-anchor="middle" x="127.7529" y="-124.5" font-family="Helvetica,sans-Serif" font-size="10.00" fill="#000000">pyodbc</text>
</g>
<!-- pyodbc&#45;&gt;main_py -->
<g id="edge3" class="edge">
<title>pyodbc&#45;&gt;main_py</title><style>.edge>path:hover{stroke-width:8}</style>
<path fill="none" stroke="#000000" d="M146.8622,-112.4746C157.5888,-102.5544 168.8257,-88.3658 168.7529,-72.5"/>
<path fill="none" stroke="#000000" d="M168.7529,-72.5C168.7139,-63.9845 168.7023,-54.7204 168.7037,-46.2867"/>
<polygon fill="#53b67b" stroke="#000000" points="172.2036,-46.1694 168.7113,-36.1668 165.2036,-46.1641 172.2036,-46.1694"/>
</g>
<!-- requests&#45;&gt;main_py -->
<g id="edge4" class="edge">
<title>requests&#45;&gt;main_py</title><style>.edge>path:hover{stroke-width:8}</style>
<path fill="none" stroke="#000000" d="M190.7879,-112.1252C179.9895,-102.265 168.8253,-88.2678 168.7529,-72.5"/>
</g>
<!-- requests___version__ -->
<g id="node5" class="node">
<title>requests___version__</title><style>.edge>path:hover{stroke-width:8}</style>
<ellipse fill="#4778c2" stroke="#000000" cx="149.7529" cy="-531.4752" rx="52.1524" ry="21.4286"/>
<text text-anchor="middle" x="149.7529" y="-534.4752" font-family="Helvetica,sans-Serif" font-size="10.00" fill="#ffffff">requests.</text>
<text text-anchor="middle" x="149.7529" y="-523.4752" font-family="Helvetica,sans-Serif" font-size="10.00" fill="#ffffff">__version__</text>
</g>
<!-- requests___version__&#45;&gt;requests -->
<g id="edge5" class="edge">
<title>requests___version__&#45;&gt;requests</title><style>.edge>path:hover{stroke-width:8}</style>
<path fill="none" stroke="#000000" d="M146.1305,-510.236C144.233,-494.1069 143.4445,-471.6128 149.7529,-453.0488"/>
</g>
<!-- requests_utils -->
<g id="node12" class="node">
<title>requests_utils</title><style>.edge>path:hover{stroke-width:8}</style>
<ellipse fill="#2d63b4" stroke="#000000" cx="226.7529" cy="-453.0488" rx="48.7185" ry="18"/>
<text text-anchor="middle" x="226.7529" y="-450.5488" font-family="Helvetica,sans-Serif" font-size="10.00" fill="#ffffff">requests.utils</text>
</g>
<!-- requests___version__&#45;&gt;requests_utils -->
<g id="edge6" class="edge">
<title>requests___version__&#45;&gt;requests_utils</title><style>.edge>path:hover{stroke-width:8}</style>
<path fill="none" stroke="#000000" d="M169.1833,-511.6849C179.3912,-501.2878 191.9921,-488.4536 202.7998,-477.4456"/>
<polygon fill="#4778c2" stroke="#000000" points="205.4357,-479.7567 209.9442,-470.1689 200.4408,-474.8525 205.4357,-479.7567"/>
</g>
<!-- requests_api -->
<g id="node6" class="node">
<title>requests_api</title><style>.edge>path:hover{stroke-width:8}</style>
<ellipse fill="#4971ac" stroke="#000000" cx="283.7529" cy="-202.2132" rx="45.1548" ry="18"/>
<text text-anchor="middle" x="283.7529" y="-199.7132" font-family="Helvetica,sans-Serif" font-size="10.00" fill="#ffffff">requests.api</text>
</g>
<!-- requests_api&#45;&gt;requests -->
<g id="edge7" class="edge">
<title>requests_api&#45;&gt;requests</title><style>.edge>path:hover{stroke-width:8}</style>
<path fill="none" stroke="#000000" d="M267.1881,-185.1462C257.2762,-174.9337 244.5349,-161.8062 233.6678,-150.6096"/>
<polygon fill="#4971ac" stroke="#000000" points="235.9779,-147.9643 226.5016,-143.2261 230.9547,-152.8396 235.9779,-147.9643"/>
</g>
<!-- requests_exceptions -->
<g id="node7" class="node">
<title>requests_exceptions</title><style>.edge>path:hover{stroke-width:8}</style>
<ellipse fill="#2469d0" stroke="#000000" cx="418.7529" cy="-531.4752" rx="49.4949" ry="21.4286"/>
<text text-anchor="middle" x="418.7529" y="-534.4752" font-family="Helvetica,sans-Serif" font-size="10.00" fill="#ffffff">requests.</text>
<text text-anchor="middle" x="418.7529" y="-523.4752" font-family="Helvetica,sans-Serif" font-size="10.00" fill="#ffffff">exceptions</text>
</g>
<!-- requests_exceptions&#45;&gt;requests -->
<g id="edge8" class="edge">
<title>requests_exceptions&#45;&gt;requests</title><style>.edge>path:hover{stroke-width:8}</style>
<path fill="none" stroke="#000000" d="M473.7529,-453.0488C481.2642,-415.4791 460.2781,-402.7096 473.7529,-366.8442"/>
</g>
<!-- requests_models -->
<g id="node8" class="node">
<title>requests_models</title><style>.edge>path:hover{stroke-width:8}</style>
<ellipse fill="#3560a1" stroke="#000000" cx="282.7529" cy="-366.8442" rx="43.6818" ry="21.4286"/>
<text text-anchor="middle" x="282.7529" y="-369.8442" font-family="Helvetica,sans-Serif" font-size="10.00" fill="#ffffff">requests.</text>
<text text-anchor="middle" x="282.7529" y="-358.8442" font-family="Helvetica,sans-Serif" font-size="10.00" fill="#ffffff">models</text>
</g>
<!-- requests_exceptions&#45;&gt;requests_models -->
<g id="edge9" class="edge">
<title>requests_exceptions&#45;&gt;requests_models</title><style>.edge>path:hover{stroke-width:8}</style>
<path fill="none" stroke="#000000" d="M380.1904,-518.0459C352.4555,-505.9605 317.6008,-485.1056 303.7529,-453.0488"/>
</g>
<!-- requests_sessions -->
<g id="node10" class="node">
<title>requests_sessions</title><style>.edge>path:hover{stroke-width:8}</style>
<ellipse fill="#3865a8" stroke="#000000" cx="282.7529" cy="-280.6396" rx="43.6818" ry="21.4286"/>
<text text-anchor="middle" x="282.7529" y="-283.6396" font-family="Helvetica,sans-Serif" font-size="10.00" fill="#ffffff">requests.</text>
<text text-anchor="middle" x="282.7529" y="-272.6396" font-family="Helvetica,sans-Serif" font-size="10.00" fill="#ffffff">sessions</text>
</g>
<!-- requests_exceptions&#45;&gt;requests_sessions -->
<g id="edge10" class="edge">
<title>requests_exceptions&#45;&gt;requests_sessions</title><style>.edge>path:hover{stroke-width:8}</style>
<path fill="none" stroke="#000000" d="M439.2948,-512.1354C452.9379,-497.4984 469.1558,-476.0423 473.7529,-453.0488"/>
<path fill="none" stroke="#000000" d="M473.7529,-453.0488C481.9616,-411.9909 455.9285,-403.5331 435.7529,-366.8442"/>
</g>
<!-- requests_exceptions&#45;&gt;requests_utils -->
<g id="edge11" class="edge">
<title>requests_exceptions&#45;&gt;requests_utils</title><style>.edge>path:hover{stroke-width:8}</style>
<path fill="none" stroke="#000000" d="M382.6392,-516.7238C350.408,-503.5583 303.1814,-484.2676 269.1639,-470.3724"/>
<polygon fill="#2469d0" stroke="#000000" points="270.0843,-466.9677 259.5033,-466.4263 267.4373,-473.4479 270.0843,-466.9677"/>
</g>
<!-- requests_models&#45;&gt;requests -->
<g id="edge12" class="edge">
<title>requests_models&#45;&gt;requests</title><style>.edge>path:hover{stroke-width:8}</style>
<path fill="none" stroke="#000000" d="M256.7249,-349.7687C236.7315,-334.425 212.2736,-309.8494 210.7529,-280.6396"/>
</g>
<!-- requests_models&#45;&gt;requests_sessions -->
<g id="edge13" class="edge">
<title>requests_models&#45;&gt;requests_sessions</title><style>.edge>path:hover{stroke-width:8}</style>
<path fill="none" stroke="#000000" d="M282.7529,-345.5352C282.7529,-335.4848 282.7529,-323.289 282.7529,-312.1951"/>
<polygon fill="#3560a1" stroke="#000000" points="286.253,-312.0022 282.7529,-302.0022 279.253,-312.0023 286.253,-312.0022"/>
</g>
<!-- requests_packages&#45;&gt;requests -->
<g id="edge14" class="edge">
<title>requests_packages&#45;&gt;requests</title><style>.edge>path:hover{stroke-width:8}</style>
<path fill="none" stroke="#000000" d="M156.5522,-182.8439C166.0705,-173.0371 177.7078,-161.047 187.7558,-150.6943"/>
<polygon fill="#4c75b3" stroke="#000000" points="190.2852,-153.1136 194.7384,-143.5 185.2621,-148.2383 190.2852,-153.1136"/>
</g>
<!-- requests_sessions&#45;&gt;requests -->
<g id="edge15" class="edge">
<title>requests_sessions&#45;&gt;requests</title><style>.edge>path:hover{stroke-width:8}</style>
<path fill="none" stroke="#000000" d="M256.3508,-263.3811C238.2009,-249.4802 216.3963,-228.035 210.7529,-202.2132"/>
</g>
<!-- requests_sessions&#45;&gt;requests_api -->
<g id="edge16" class="edge">
<title>requests_sessions&#45;&gt;requests_api</title><style>.edge>path:hover{stroke-width:8}</style>
<path fill="none" stroke="#000000" d="M283.0262,-259.2092C283.1388,-250.3782 283.2708,-240.0206 283.3913,-230.5748"/>
<polygon fill="#3865a8" stroke="#000000" points="286.8928,-230.4715 283.5207,-220.4276 279.8934,-230.3821 286.8928,-230.4715"/>
</g>
<!-- requests_status_codes -->
<g id="node11" class="node">
<title>requests_status_codes</title><style>.edge>path:hover{stroke-width:8}</style>
<ellipse fill="#3b76ce" stroke="#000000" cx="388.7529" cy="-453.0488" rx="56.6372" ry="21.4286"/>
<text text-anchor="middle" x="388.7529" y="-456.0488" font-family="Helvetica,sans-Serif" font-size="10.00" fill="#ffffff">requests.</text>
<text text-anchor="middle" x="388.7529" y="-445.0488" font-family="Helvetica,sans-Serif" font-size="10.00" fill="#ffffff">status_codes</text>
</g>
<!-- requests_status_codes&#45;&gt;requests -->
<g id="edge17" class="edge">
<title>requests_status_codes&#45;&gt;requests</title><style>.edge>path:hover{stroke-width:8}</style>
<path fill="none" stroke="#000000" d="M418.7946,-434.7642C439.9539,-419.6865 465.8621,-396.0632 473.7529,-366.8442"/>
<path fill="none" stroke="#000000" d="M473.7529,-366.8442C486.7079,-318.8731 482.3258,-303.7669 504.7529,-259.4264 519.2312,-230.8015 569.1389,-226.9805 548.7529,-202.2132"/>
<path fill="none" stroke="#000000" d="M548.7529,-202.2132C510.3474,-158.8326 338.152,-138.1379 255.4152,-130.5604"/>
<polygon fill="#3b76ce" stroke="#000000" points="255.579,-127.0612 245.3077,-129.6593 254.9574,-134.0335 255.579,-127.0612"/>
</g>
<!-- requests_status_codes&#45;&gt;requests_models -->
<g id="edge18" class="edge">
<title>requests_status_codes&#45;&gt;requests_models</title><style>.edge>path:hover{stroke-width:8}</style>
<path fill="none" stroke="#000000" d="M364.9645,-433.7028C349.6473,-421.2461 329.5964,-404.9397 313.1311,-391.5493"/>
<polygon fill="#3b76ce" stroke="#000000" points="315.3393,-388.8338 305.3727,-385.2398 310.9227,-394.2646 315.3393,-388.8338"/>
</g>
<!-- requests_status_codes&#45;&gt;requests_sessions -->
<g id="edge19" class="edge">
<title>requests_status_codes&#45;&gt;requests_sessions</title><style>.edge>path:hover{stroke-width:8}</style>
<path fill="none" stroke="#000000" d="M411.5588,-433.5118C429.0774,-416.0253 448.3199,-389.697 435.7529,-366.8442"/>
<path fill="none" stroke="#000000" d="M435.7529,-366.8442C414.4686,-328.139 368.2724,-305.6333 332.1781,-293.3879"/>
<polygon fill="#3b76ce" stroke="#000000" points="332.8863,-289.9389 322.2947,-290.2012 330.7382,-296.6011 332.8863,-289.9389"/>
</g>
<!-- requests_utils&#45;&gt;requests -->
<g id="edge20" class="edge">
<title>requests_utils&#45;&gt;requests</title><style>.edge>path:hover{stroke-width:8}</style>
<path fill="none" stroke="#000000" d="M220.2903,-435.0056C214.8144,-417.6467 208.2235,-390.608 210.7529,-366.8442"/>
<path fill="none" stroke="#000000" d="M210.7529,-366.8442C214.808,-328.7462 212.7448,-318.9009 210.7529,-280.6396"/>
</g>
<!-- requests_utils&#45;&gt;requests_models -->
<g id="edge21" class="edge">
<title>requests_utils&#45;&gt;requests_models</title><style>.edge>path:hover{stroke-width:8}</style>
<path fill="none" stroke="#000000" d="M238.3562,-435.1871C245.7486,-423.8074 255.4954,-408.8035 263.9729,-395.7535"/>
<polygon fill="#2d63b4" stroke="#000000" points="267.0821,-397.3922 269.5947,-387.0996 261.2119,-393.5788 267.0821,-397.3922"/>
</g>
<!-- requests_utils&#45;&gt;requests_sessions -->
<g id="edge22" class="edge">
<title>requests_utils&#45;&gt;requests_sessions</title><style>.edge>path:hover{stroke-width:8}</style>
<path fill="none" stroke="#000000" d="M210.7529,-366.8442C213.4196,-341.7901 231.7366,-320.0663 249.2262,-304.6936"/>
<polygon fill="#2d63b4" stroke="#000000" points="251.7075,-307.1816 257.1445,-298.0882 247.2235,-301.8063 251.7075,-307.1816"/>
</g>
<!-- urllib3 -->
<g id="node13" class="node">
<title>urllib3</title><style>.edge>path:hover{stroke-width:8}</style>
<ellipse fill="#bd0ce9" stroke="#000000" cx="418.7529" cy="-643.6884" rx="27.8353" ry="18"/>
<text text-anchor="middle" x="418.7529" y="-641.1884" font-family="Helvetica,sans-Serif" font-size="10.00" fill="#ffffff">urllib3</text>
</g>
<!-- urllib3&#45;&gt;requests -->
<g id="edge23" class="edge">
<title>urllib3&#45;&gt;requests</title><style>.edge>path:hover{stroke-width:8}</style>
<path fill="none" stroke="#000000" d="M396.2265,-633.1404C373.0056,-622.2373 335.7765,-604.6736 303.7529,-589.1884"/>
<path fill="none" stroke="#000000" d="M303.7529,-589.1884C216.4963,-546.9948 151.2898,-626.7368 88.7529,-552.6884 76.5865,-538.2824 81.259,-527.5651 88.7529,-510.262 103.5252,-476.1536 137.7935,-488.2421 149.7529,-453.0488"/>
<path fill="none" stroke="#000000" d="M149.7529,-453.0488C155.4751,-433.5508 211.8094,-300.9324 210.7529,-280.6396"/>
<path fill="none" stroke="#000000" d="M210.7529,-280.6396C207.8193,-245.9071 218.1951,-236.2656 210.7529,-202.2132"/>
<path fill="none" stroke="#000000" d="M210.7529,-202.2132C207.4204,-186.9649 207.1999,-169.5586 207.9118,-155.3338"/>
<polygon fill="#bd0ce9" stroke="#000000" points="211.4168,-155.3787 208.6019,-145.1646 204.4328,-154.9047 211.4168,-155.3787"/>
</g>
<!-- urllib3&#45;&gt;requests_exceptions -->
<g id="edge24" class="edge">
<title>urllib3&#45;&gt;requests_exceptions</title><style>.edge>path:hover{stroke-width:8}</style>
<path fill="none" stroke="#000000" d="M418.7529,-625.6594C418.7529,-608.7771 418.7529,-583.1861 418.7529,-562.9386"/>
<polygon fill="#bd0ce9" stroke="#000000" points="422.253,-562.9119 418.7529,-552.912 415.253,-562.912 422.253,-562.9119"/>
</g>
<!-- urllib3&#45;&gt;requests_models -->
<g id="edge25" class="edge">
<title>urllib3&#45;&gt;requests_models</title><style>.edge>path:hover{stroke-width:8}</style>
<path fill="none" stroke="#000000" d="M303.7529,-531.4752C295.8685,-497.5224 317.5755,-485.0471 303.7529,-453.0488"/>
<path fill="none" stroke="#000000" d="M303.7529,-453.0488C296.165,-435.4833 290.9965,-414.6677 287.6859,-397.8919"/>
<polygon fill="#bd0ce9" stroke="#000000" points="291.1228,-397.2289 285.8597,-388.0338 284.2399,-398.504 291.1228,-397.2289"/>
</g>
<!-- urllib3&#45;&gt;requests_utils -->
<g id="edge26" class="edge">
<title>urllib3&#45;&gt;requests_utils</title><style>.edge>path:hover{stroke-width:8}</style>
<path fill="none" stroke="#000000" d="M303.7529,-589.1884C280.6607,-578.022 309.555,-556.4607 303.7529,-531.4752"/>
<path fill="none" stroke="#000000" d="M303.7529,-531.4752C298.2633,-507.8353 279.2221,-488.3268 261.4499,-474.6796"/>
<polygon fill="#bd0ce9" stroke="#000000" points="263.0388,-471.5076 252.8922,-468.4586 258.9228,-477.1697 263.0388,-471.5076"/>
</g>
<!-- urllib3_contrib -->
<g id="node14" class="node">
<title>urllib3_contrib</title><style>.edge>path:hover{stroke-width:8}</style>
<ellipse fill="#a253b6" stroke="#000000" cx="548.7529" cy="-280.6396" rx="35.2113" ry="21.4286"/>
<text text-anchor="middle" x="548.7529" y="-283.6396" font-family="Helvetica,sans-Serif" font-size="10.00" fill="#ffffff">urllib3.</text>
<text text-anchor="middle" x="548.7529" y="-272.6396" font-family="Helvetica,sans-Serif" font-size="10.00" fill="#ffffff">contrib</text>
</g>
<!-- urllib3_contrib&#45;&gt;requests -->
<g id="edge27" class="edge">
<title>urllib3_contrib&#45;&gt;requests</title><style>.edge>path:hover{stroke-width:8}</style>
<path fill="none" stroke="#000000" d="M555.4288,-259.5471C559.5014,-242.1974 561.7323,-217.9821 548.7529,-202.2132"/>
</g>
<!-- urllib3_contrib_pyopenssl -->
<g id="node15" class="node">
<title>urllib3_contrib_pyopenssl</title><style>.edge>path:hover{stroke-width:8}</style>
<ellipse fill="#9e4cb3" stroke="#000000" cx="548.7529" cy="-366.8442" rx="46.8387" ry="28.9828"/>
<text text-anchor="middle" x="548.7529" y="-375.3442" font-family="Helvetica,sans-Serif" font-size="10.00" fill="#ffffff">urllib3.</text>
<text text-anchor="middle" x="548.7529" y="-364.3442" font-family="Helvetica,sans-Serif" font-size="10.00" fill="#ffffff">contrib.</text>
<text text-anchor="middle" x="548.7529" y="-353.3442" font-family="Helvetica,sans-Serif" font-size="10.00" fill="#ffffff">pyopenssl</text>
</g>
<!-- urllib3_contrib_pyopenssl&#45;&gt;requests -->
<g id="edge28" class="edge">
<title>urllib3_contrib_pyopenssl&#45;&gt;requests</title><style>.edge>path:hover{stroke-width:8}</style>
<path fill="none" stroke="#000000" d="M583.5308,-346.9563C605.4103,-331.5308 628.6607,-308.1765 623.7529,-280.6396"/>
<path fill="none" stroke="#000000" d="M623.7529,-280.6396C615.2905,-233.1585 579.4031,-239.4507 548.7529,-202.2132"/>
</g>
<!-- urllib3_exceptions -->
<g id="node16" class="node">
<title>urllib3_exceptions</title><style>.edge>path:hover{stroke-width:8}</style>
<ellipse fill="#b82fdb" stroke="#000000" cx="446.7529" cy="-718.9016" rx="49.4949" ry="21.4286"/>
<text text-anchor="middle" x="446.7529" y="-721.9016" font-family="Helvetica,sans-Serif" font-size="10.00" fill="#ffffff">urllib3.</text>
<text text-anchor="middle" x="446.7529" y="-710.9016" font-family="Helvetica,sans-Serif" font-size="10.00" fill="#ffffff">exceptions</text>
</g>
<!-- urllib3_exceptions&#45;&gt;requests -->
<g id="edge29" class="edge">
<title>urllib3_exceptions&#45;&gt;requests</title><style>.edge>path:hover{stroke-width:8}</style>
<path fill="none" stroke="#000000" d="M495.7529,-589.1884C476.6798,-492.4008 572.004,-488.89 604.7529,-395.8356 621.9791,-346.8884 632.8576,-331.7245 623.7529,-280.6396"/>
</g>
<!-- urllib3_exceptions&#45;&gt;requests_exceptions -->
<g id="edge30" class="edge">
<title>urllib3_exceptions&#45;&gt;requests_exceptions</title><style>.edge>path:hover{stroke-width:8}</style>
<path fill="none" stroke="#000000" d="M484.7529,-643.6884C480.6801,-619.3157 500.5306,-613.4328 495.7529,-589.1884"/>
<path fill="none" stroke="#000000" d="M495.7529,-589.1884C492.4628,-572.4926 479.6007,-559.9461 465.3045,-550.8901"/>
<polygon fill="#b82fdb" stroke="#000000" points="466.7026,-547.6563 456.2906,-545.6967 463.208,-553.7216 466.7026,-547.6563"/>
</g>
<!-- urllib3_exceptions&#45;&gt;requests_models -->
<g id="edge31" class="edge">
<title>urllib3_exceptions&#45;&gt;requests_models</title><style>.edge>path:hover{stroke-width:8}</style>
<path fill="none" stroke="#000000" d="M465.1682,-699.0114C476.4475,-684.4903 488.1287,-663.89 484.7529,-643.6884"/>
<path fill="none" stroke="#000000" d="M484.7529,-643.6884C473.486,-576.264 406.2714,-603.689 360.7529,-552.6884 326.7813,-514.6253 323.9847,-499.8841 303.7529,-453.0488"/>
</g>
<!-- urllib3_exceptions&#45;&gt;urllib3 -->
<g id="edge32" class="edge">
<title>urllib3_exceptions&#45;&gt;urllib3</title><style>.edge>path:hover{stroke-width:8}</style>
<path fill="none" stroke="#000000" d="M438.9534,-697.9505C435.8495,-689.6131 432.2362,-679.9069 428.9307,-671.0277"/>
<polygon fill="#b82fdb" stroke="#000000" points="432.142,-669.6217 425.373,-661.4712 425.5818,-672.064 432.142,-669.6217"/>
</g>
</g>
</svg>
